# File created by Blade
# Date/Time:  Wed Jan 21 17:21:41 2015
#---------------------------------------------------------
:version 1.10
:name HOM
:units
  mass 1.0
  length 1.000000
  angle deg
:documentation
     Acclaim Skeleton File
:root
   axis xyz
   order TX TY TZ RX RY RZ
   position 0.000000 0.000000 0.000000
   orientation 0 0 0
:bonedata
   begin
      id 1
      name Spine_dum
      direction 0.000000 1.000000 0.000000
      length 7.067664
      axis 0.0 0.0 0.0 xyz
   end
   begin
      id 2
      name LeftUpLeg_dum
      direction 1.000000 0.000000 0.000000
      length 4.013002
      axis 0.0 0.0 0.0 xyz
   end
   begin
      id 3
      name RightUpLeg_dum
      direction -1.000000 0.000000 0.000000
      length 4.013002
      axis 0.0 0.0 0.0 xyz
   end
   begin
      id 4
      name Spine
      direction 0.000000 1.000000 0.000000
      length 0.000000
      axis 0.0 0.0 0.0 xyz
      dof rx ry rz
   end
   begin
      id 5
      name Spine_dum1
      direction 0.000000 1.000000 0.000000
      length 15.039886
      axis 0.0 0.0 0.0 xyz
   end
   begin
      id 6
      name Spine_dum2
      direction 0.000000 1.000000 0.000000
      length 10.530368
      axis 0.0 0.0 0.0 xyz
   end
   begin
      id 7
      name Spine_dum3
      direction 0.000000 1.000000 0.000000
      length 10.530368
      axis 0.0 0.0 0.0 xyz
   end
   begin
      id 8
      name Head
      direction 0.000000 1.000000 0.000000
      length 4.527550
      axis 0.0 0.0 0.0 xyz
      dof rx ry rz
   end
   begin
      id 9
      name LeftShoulder
      direction 1.000000 0.000000 0.000000
      length 7.028855
      axis 0.0 0.0 -90.0 xyz
      dof rx ry rz
   end
   begin
      id 10
      name LeftArm
      direction 1.000000 0.000000 0.000000
      length 10.797705
      axis 0.0 0.0 -90.0 xyz
      dof rx ry rz
   end
   begin
      id 11
      name LeftForeArm
      direction 1.000000 0.000000 0.000000
      length 7.907442
      axis 0.0 0.0 -90.0 xyz
      dof ry rz rx
   end
   begin
      id 12
      name LeftHand
      direction 0.000000 0.000000 0.000000
      length 0.000000
      axis 0.0 0.0 -90.0 xyz
      dof rx ry rz
   end
   begin
      id 13
      name LeftHand_dum1
      direction 0.000000 0.000000 0.000000
      length 0.000000
      axis 0.0 0.0 -90.0 xyz
   end
   begin
      id 14
      name LeftHand_dum2
      direction 1.000000 0.000000 0.000000
      length 3.937000
      axis 0.0 0.0 -90.0 xyz
   end
   begin
      id 15
      name LeftHandThumb1
      direction 0.000000 0.000000 1.000000
      length 3.937000
      axis 0.0 0.0 -90.0 xyz
      dof rx rz ry
   end
   begin
      id 16
      name RightShoulder
      direction -1.000000 0.000000 0.000000
      length 7.028855
      axis 0.0 0.0 90.0 xyz
      dof rx ry rz
   end
   begin
      id 17
      name RightArm
      direction -1.000000 0.000000 0.000000
      length 10.797705
      axis 0.0 0.0 90.0 xyz
      dof rx ry rz
   end
   begin
      id 18
      name RightForeArm
      direction -1.000000 0.000000 0.000000
      length 7.907442
      axis 0.0 0.0 90.0 xyz
      dof ry rz rx
   end
   begin
      id 19
      name RightHand
      direction 0.000000 0.000000 0.000000
      length 0.000000
      axis 0.0 0.0 90.0 xyz
      dof rx ry rz
   end
   begin
      id 20
      name RightHand_dum1
      direction 0.000000 0.000000 0.000000
      length 0.000000
      axis 0.0 0.0 90.0 xyz
   end
   begin
      id 21
      name RightHand_dum2
      direction -1.000000 0.000000 0.000000
      length 3.937000
      axis 0.0 0.0 90.0 xyz
   end
   begin
      id 22
      name RightHandThumb1
      direction 0.000000 0.000000 1.000000
      length 3.937000
      axis 0.0 0.0 90.0 xyz
      dof rx rz ry
   end
   begin
      id 23
      name LeftUpLeg
      direction 0.000000 -1.000000 0.000000
      length 16.899758
      axis 0.0 0.0 0.0 xyz
      dof rx ry rz
   end
   begin
      id 24
      name LeftLeg
      direction 0.000000 -1.000000 0.000000
      length 17.389183
      axis 0.0 0.0 0.0 xyz
      dof rx ry rz
   end
   begin
      id 25
      name LeftFoot
      direction 0.000000 -0.258819 0.965926
      length 4.924528
      axis 15.0 0.0 0.0 xyz
      dof rx ry rz
   end
   begin
      id 26
      name LeftToeBase
      direction 0.000000 0.000000 1.000000
      length 2.952750
      axis 0.0 0.0 0.0 xyz
      dof rx ry rz
   end
   begin
      id 27
      name RightUpLeg
      direction 0.000000 -1.000000 0.000000
      length 16.899758
      axis 0.0 0.0 0.0 xyz
      dof rx ry rz
   end
   begin
      id 28
      name RightLeg
      direction 0.000000 -1.000000 0.000000
      length 17.389183
      axis 0.0 0.0 0.0 xyz
      dof rx ry rz
   end
   begin
      id 29
      name RightFoot
      direction 0.000000 -0.258819 0.965926
      length 4.924528
      axis 15.0 0.0 0.0 xyz
      dof rx ry rz
   end
   begin
      id 30
      name RightToeBase
      direction 0.000000 0.000000 1.000000
      length 2.952750
      axis 0.0 0.0 0.0 xyz
      dof rx ry rz
   end
:hierarchy
   begin
      root Spine_dum LeftUpLeg_dum RightUpLeg_dum
      Spine_dum Spine
      LeftUpLeg_dum LeftUpLeg
      RightUpLeg_dum RightUpLeg
      Spine Spine_dum1 Spine_dum2 Spine_dum3
      Spine_dum1 Head
      Spine_dum2 LeftShoulder
      Spine_dum3 RightShoulder
      LeftShoulder LeftArm
      LeftArm LeftForeArm
      LeftForeArm LeftHand
      LeftHand LeftHand_dum1 LeftHand_dum2
      LeftHand_dum1 LeftHandThumb1
      RightShoulder RightArm
      RightArm RightForeArm
      RightForeArm RightHand
      RightHand RightHand_dum1 RightHand_dum2
      RightHand_dum1 RightHandThumb1
      LeftUpLeg LeftLeg
      LeftLeg LeftFoot
      LeftFoot LeftToeBase
      RightUpLeg RightLeg
      RightLeg RightFoot
      RightFoot RightToeBase
   end

# File created by Blade
# Date/Time:  Wed Jan 21 17:21:31 2015
# Frame Rate: 120.000 fps
#------------------------------------------------------
:FULLY-SPECIFIED
:DEGREES
97
root 18.662808 35.573257 -21.353188 -180.614784 0.267439 -179.885982
Spine -0.478745 3.365328 -3.242613
Head 20.473476 -4.841682 3.173828
LeftShoulder -2.569832 -30.582712 6.592094
LeftArm 10.299242 11.042222 -21.308673
LeftForeArm 11.418007 -0.000000 -0.563429
LeftHand -8.511754 -0.000000 -0.055222
LeftHandThumb1 -26.253704 0.000000 33.147579
RightShoulder -5.566066 -6.886773 -2.132630
RightArm 21.732021 27.477861 32.416701
RightForeArm -32.905935 0.000000 10.098306
RightHand -9.321449 -0.000000 -13.854663
RightHandThumb1 -24.326973 -0.000000 -32.862282
LeftUpLeg 6.392769 10.282989 2.568552
LeftLeg -3.331511 -0.000000 0.000000
LeftFoot -18.459344 26.556923 -11.788462
LeftToeBase 24.762042 -0.000000 -0.000000
RightUpLeg 1.914147 -10.701931 -7.129188
RightLeg 3.853255 -0.000000 -0.000000
RightFoot -17.941386 -20.849479 19.086030
RightToeBase 23.808394 -0.000000 -0.000000
98
root 18.601966 35.584375 -21.288449 -180.790462 0.346491 -179.898132
Spine 0.035797 3.468396 -3.238333
Head 20.693015 -4.892907 3.181765
LeftShoulder -2.395063 -30.273755 5.991953
LeftArm 10.367758 11.398918 -22.181622
LeftForeArm 11.149458 0.000000 -0.347699
LeftHand -8.610326 -0.000000 0.082051
LeftHandThumb1 -26.253704 0.000000 33.147579
RightShoulder -5.590349 -7.286802 -1.723422
RightArm 22.504209 27.273739 33.753601
RightForeArm -32.770278 0.000000 10.544075
RightHand -9.402258 -0.000000 -14.522306
RightHandThumb1 -24.326973 -0.000000 -32.862282
LeftUpLeg 6.448153 10.310450 2.460593
LeftLeg -3.284482 -0.000000 0.000000
LeftFoot -18.449355 26.603524 -11.818081
LeftToeBase 24.764023 -0.000000 -0.000000
RightUpLeg 1.788489 -10.639202 -7.240841
RightLeg 4.168957 -0.000000 -0.000000
RightFoot -17.771831 -20.856607 19.066050
RightToeBase 23.826851 -0.000000 -0.000000
99
root 18.532635 35.594711 -21.218174 -180.953051 0.422405 -179.944547
Spine 0.551632 3.543737 -3.251410
Head 20.938712 -4.861238 3.198580
LeftShoulder -2.227396 -29.913926 5.348062
LeftArm 10.461675 11.735485 -23.033621
LeftForeArm 10.906413 -0.000000 -0.281108
LeftHand -8.462207 -0.000000 0.262007
LeftHandThumb1 -26.253704 0.000000 33.147579
RightShoulder -5.504422 -7.484467 -1.340821
RightArm 23.045552 27.135414 35.079757
RightForeArm -32.832013 0.000000 11.039794
RightHand -9.321913 -0.000000 -15.008071
RightHandThumb1 -24.326973 -0.000000 -32.862282
LeftUpLeg 6.455774 10.298619 2.296373
LeftLeg -3.186051 -0.000000 0.000000
LeftFoot -18.401735 26.693301 -11.775304
LeftToeBase 24.717689 -0.000000 -0.000000
RightUpLeg 1.644551 -10.443477 -7.393127
RightLeg 4.479948 -0.000000 -0.000000
RightFoot -17.624103 -20.953256 19.124123
RightToeBase 23.709007 -0.000000 -0.000000
100
root 18.465812 35.605278 -21.142352 -181.036720 0.525965 -179.964973
Spine 0.981272 3.642997 -3.290401
Head 21.141473 -4.905763 3.272901
LeftShoulder -2.131960 -29.421068 4.830005
LeftArm 10.580584 11.921039 -24.005991
LeftForeArm 10.657519 -0.000000 -0.108865
LeftHand -8.412342 -0.000000 0.591123
LeftHandThumb1 -26.253704 0.000000 33.147579
RightShoulder -5.381930 -7.621913 -0.878136
RightArm 23.280598 26.711127 36.159201
RightForeArm -32.691560 0.000000 11.773514
RightHand -9.444768 0.000000 -15.292359
RightHandThumb1 -24.326973 -0.000000 -32.862282
LeftUpLeg 6.395799 10.252902 2.149151
LeftLeg -3.113836 -0.000000 0.000000
LeftFoot -18.326961 26.840741 -11.655698
LeftToeBase 24.672617 -0.000000 -0.000000
RightUpLeg 1.385064 -10.282239 -7.500388
RightLeg 4.829873 -0.000000 -0.000000
RightFoot -17.422430 -20.999310 19.202249
RightToeBase 23.431908 -0.000000 -0.000000
101
root 18.396445 35.615670 -21.069230 -181.177482 0.588221 -179.967465
Spine 1.486241 3.733926 -3.264246
Head 21.348662 -4.986613 3.249196
LeftShoulder -2.008557 -28.944779 4.225371
LeftArm 10.737574 11.992442 -24.993940
LeftForeArm 10.544371 -0.000000 -0.014146
LeftHand -8.273906 -0.000000 0.641962
LeftHandThumb1 -26.253704 0.000000 33.147579
RightShoulder -5.354476 -7.896364 -0.415270
RightArm 23.750299 26.417190 37.352051
RightForeArm -32.591345 -0.000000 12.348008
RightHand -9.408951 -0.000000 -15.520451
RightHandThumb1 -24.326973 -0.000000 -32.862282
LeftUpLeg 6.371379 10.246630 2.025034
LeftLeg -3.017852 -0.000000 0.000000
LeftFoot -18.379406 26.909252 -11.688949
LeftToeBase 24.737208 -0.000000 -0.000000
RightUpLeg 1.229960 -10.096285 -7.605667
RightLeg 5.116446 -0.000000 -0.000000
RightFoot -17.192555 -21.103788 19.296909
RightToeBase 23.218001 -0.000000 -0.000000
102
root 18.323364 35.626380 -20.993423 -181.268312 0.674975 -179.974382
Spine 1.953959 3.769334 -3.245835
Head 21.478295 -4.938163 3.313784
LeftShoulder -2.015930 -28.649854 3.696122
LeftArm 10.804304 12.166952 -26.074400
LeftForeArm 10.273345 0.000000 0.038682
LeftHand -8.133501 0.000000 1.186252
LeftHandThumb1 -26.253704 0.000000 33.147579
RightShoulder -5.245947 -8.092826 0.020767
RightArm 24.088468 26.071759 38.550833
RightForeArm -32.492681 0.000000 13.041125
RightHand -9.456371 -0.000000 -15.789372
RightHandThumb1 -24.326973 -0.000000 -32.862282
LeftUpLeg 6.328099 10.163426 1.881154
LeftLeg -2.971457 -0.000000 0.000000
LeftFoot -18.329063 27.053771 -11.596154
LeftToeBase 24.765213 -0.000000 -0.000000
RightUpLeg 0.987492 -9.866324 -7.715251
RightLeg 5.450788 -0.000000 -0.000000
RightFoot -16.988742 -21.221730 19.358242
RightToeBase 23.085693 -0.000000 -0.000000
